<svg width="10" height="9" viewBox="0 0 10 9" fill="none" xmlns="http://www.w3.org/2000/svg">
<path d="M0.5 1V9H3.5V8.25H2.5V7.5H3.5V6.75H1.5V6H3.5V5.25H2.5V4.5H3.5V3.75H1.5V3H3.5V1H4.25V3H5V2H5.75V3H6.5V1H7.25V3H8V2H8.75V3H9.5V0H1.5C1.23478 0 0.98043 0.105357 0.792893 0.292893C0.605357 0.48043 0.5 0.734784 0.5 1ZM2 2C1.86739 2 1.74021 1.94732 1.64645 1.85355C1.55268 1.75979 1.5 1.63261 1.5 1.5C1.5 1.36739 1.55268 1.24021 1.64645 1.14645C1.74021 1.05268 1.86739 1 2 1C2.13261 1 2.25979 1.05268 2.35355 1.14645C2.44732 1.24021 2.5 1.36739 2.5 1.5C2.5 1.63261 2.44732 1.75979 2.35355 1.85355C2.25979 1.94732 2.13261 2 2 2Z" fill="#666666"/>
</svg>
