<svg width="12" height="7" viewBox="0 0 12 7" fill="none" xmlns="http://www.w3.org/2000/svg">
<path d="M6 0C5.53587 0 5.09075 0.184375 4.76256 0.512563C4.43437 0.840752 4.25 1.28587 4.25 1.75C4.25 2.21413 4.43437 2.65925 4.76256 2.98744C5.09075 3.31563 5.53587 3.5 6 3.5C6.46413 3.5 6.90925 3.31563 7.23744 2.98744C7.56563 2.65925 7.75 2.21413 7.75 1.75C7.75 1.28587 7.56563 0.840752 7.23744 0.512563C6.90925 0.184375 6.46413 0 6 0ZM6 1C6.19891 1 6.38968 1.07902 6.53033 1.21967C6.67098 1.36032 6.75 1.55109 6.75 1.75C6.75 1.94891 6.67098 2.13968 6.53033 2.28033C6.38968 2.42098 6.19891 2.5 6 2.5C5.80109 2.5 5.61032 2.42098 5.46967 2.28033C5.32902 2.13968 5.25 1.94891 5.25 1.75C5.25 1.55109 5.32902 1.36032 5.46967 1.21967C5.61032 1.07902 5.80109 1 6 1ZM2.75 1.5C2.41848 1.5 2.10054 1.6317 1.86612 1.86612C1.6317 2.10054 1.5 2.41848 1.5 2.75C1.5 3.22 1.765 3.625 2.145 3.84C2.325 3.94 2.53 4 2.75 4C2.97 4 3.175 3.94 3.355 3.84C3.54 3.735 3.695 3.585 3.81 3.405C3.44574 2.93029 3.24884 2.34836 3.25 1.75V1.61C3.1 1.54 2.93 1.5 2.75 1.5ZM9.25 1.5C9.07 1.5 8.9 1.54 8.75 1.61V1.75C8.75 2.35 8.555 2.93 8.19 3.405C8.25 3.5 8.315 3.575 8.39 3.65C8.62058 3.87355 8.92884 3.99901 9.25 4C9.47 4 9.675 3.94 9.855 3.84C10.235 3.625 10.5 3.22 10.5 2.75C10.5 2.41848 10.3683 2.10054 10.1339 1.86612C9.89946 1.6317 9.58152 1.5 9.25 1.5ZM6 4.5C4.83 4.5 2.5 5.085 2.5 6.25V7H9.5V6.25C9.5 5.085 7.17 4.5 6 4.5ZM2.355 4.775C1.39 4.89 0 5.38 0 6.25V7H1.5V6.035C1.5 5.53 1.845 5.11 2.355 4.775ZM9.645 4.775C10.155 5.11 10.5 5.53 10.5 6.035V7H12V6.25C12 5.38 10.61 4.89 9.645 4.775ZM6 5.5C6.765 5.5 7.62 5.75 8.115 6H3.885C4.38 5.75 5.235 5.5 6 5.5Z" fill="#666666"/>
</svg>
