<svg width="12" height="13" viewBox="0 0 12 13" fill="none" xmlns="http://www.w3.org/2000/svg">
<path d="M4.05384 10.225C3.501 10.0214 3.00902 9.6805 2.62417 9.23443C2.23932 8.78835 1.97423 8.25172 1.85384 7.675L1.02384 3.77C0.903841 3.23 1.24884 2.7 1.78884 2.585L6.67384 1.55L6.68884 1.545C7.22384 1.44 7.74884 1.785 7.85884 2.315L8.03384 3.15L10.2088 3.615H10.2238C10.7488 3.735 11.0888 4.265 10.9788 4.795L10.1488 8.705C10.053 9.15416 9.8697 9.58004 9.60928 9.95833C9.34886 10.3366 9.01646 10.6599 8.63108 10.9097C8.2457 11.1595 7.81489 11.3309 7.36324 11.4142C6.91159 11.4975 6.44797 11.4909 5.99884 11.395C5.23693 11.236 4.55134 10.8236 4.05384 10.225ZM9.99884 4.59L5.11384 3.55L4.28384 7.46V7.475C3.99884 8.815 4.86384 10.135 6.20884 10.42C7.55384 10.705 8.88384 9.845 9.16884 8.5L9.99884 4.59ZM7.99884 8.75C7.84089 9.01741 7.60286 9.2284 7.31842 9.35312C7.03399 9.47784 6.71755 9.50998 6.41384 9.445C6.11109 9.38021 5.83611 9.22254 5.62726 8.99398C5.41842 8.76541 5.28613 8.47736 5.24884 8.17L7.99884 8.75ZM4.23384 3.085L1.99884 3.565L2.82884 7.47L2.83384 7.485C2.90884 7.84 3.05884 8.16 3.26384 8.435C3.21384 8.05 3.22384 7.65 3.30884 7.25L3.52384 6.25C3.29884 6.21 3.10384 6.085 2.99884 5.905C3.02884 5.6 3.27884 5.33 3.62384 5.25H3.74884L4.13884 3.345C4.15884 3.25 4.18884 3.165 4.23384 3.085ZM7.51384 6.615C7.67384 6.35 8.01384 6.21 8.35884 6.285C8.70384 6.355 8.95384 6.62 8.99884 6.93C8.83384 7.19 8.49884 7.33 8.14884 7.25C7.80384 7.185 7.55384 6.92 7.51384 6.615ZM5.07384 6.095C5.23384 5.83 5.56884 5.69 5.91384 5.765C6.24884 5.835 6.51384 6.105 6.55384 6.41C6.38884 6.67 6.05384 6.815 5.70884 6.75C5.36384 6.665 5.11384 6.4 5.07384 6.095ZM5.98384 2.715L6.96384 2.925L6.88384 2.525L5.98384 2.715Z" fill="#666666"/>
</svg>
