<svg width="12" height="12" viewBox="0 0 12 12" fill="none" xmlns="http://www.w3.org/2000/svg">
<path d="M9.875 3.875H7.625C7.49239 3.875 7.36522 3.82232 7.27145 3.72855C7.17768 3.63479 7.125 3.50761 7.125 3.375V1.125M9.875 3.875V10.375C9.875 10.5076 9.82232 10.6348 9.72855 10.7286C9.63479 10.8223 9.50761 10.875 9.375 10.875H2.625C2.49239 10.875 2.36521 10.8223 2.27145 10.7286C2.17768 10.6348 2.125 10.5076 2.125 10.375V1.625C2.125 1.49239 2.17768 1.36521 2.27145 1.27145C2.36521 1.17768 2.49239 1.125 2.625 1.125H7.125M9.875 3.875L7.125 1.125M3.75 5.75H8.25M3.75 8H8.25" stroke="#666666" stroke-linecap="round" stroke-linejoin="round"/>
</svg>
