<svg width="13" height="11" viewBox="0 0 13 11" fill="none" xmlns="http://www.w3.org/2000/svg">
<path d="M2.44444 8.55556H5.5V7.33333H2.44444V8.55556ZM8.55555 8.55556H9.77778V7.33333H8.55555V8.55556ZM2.44444 6.11111H5.5V4.88889H2.44444V6.11111ZM8.55555 6.11111H9.77778V2.44444H8.55555V6.11111ZM2.44444 3.66667H5.5V2.44444H2.44444V3.66667ZM1.22222 11C0.886111 11 0.598481 10.8804 0.359333 10.6413C0.119778 10.4017 0 10.1139 0 9.77778V1.22222C0 0.886111 0.119778 0.598278 0.359333 0.358722C0.598481 0.119574 0.886111 0 1.22222 0H11C11.3361 0 11.6239 0.119574 11.8635 0.358722C12.1026 0.598278 12.2222 0.886111 12.2222 1.22222V9.77778C12.2222 10.1139 12.1026 10.4017 11.8635 10.6413C11.6239 10.8804 11.3361 11 11 11H1.22222ZM1.22222 9.77778H11V1.22222H1.22222V9.77778Z" fill="#666666"/>
</svg>
