<svg width="12" height="13" viewBox="0 0 12 13" fill="none" xmlns="http://www.w3.org/2000/svg">
<path d="M6.00391 7.5C6.55619 7.5 7.00391 7.05228 7.00391 6.5C7.00391 5.94772 6.55619 5.5 6.00391 5.5C5.45162 5.5 5.00391 5.94772 5.00391 6.5C5.00391 7.05228 5.45162 7.5 6.00391 7.5Z" fill="#666666"/>
<path d="M5.50391 11.5H6.50391L6.75391 8H5.25391L5.50391 11.5Z" fill="#666666"/>
<path d="M6.00185 1.5C4.78783 1.50714 3.61787 1.95575 2.7103 2.7621C1.80273 3.56846 1.21954 4.67748 1.06956 5.88222C0.919582 7.08696 1.21305 8.30512 1.89522 9.30939C2.57738 10.3137 3.60163 11.0354 4.77685 11.34L4.70185 10.28C3.80703 9.97183 3.05047 9.35638 2.56663 8.54302C2.08278 7.72967 1.90299 6.7711 2.05922 5.8377C2.21545 4.90429 2.69757 4.05651 3.4199 3.44504C4.14222 2.83356 5.05796 2.498 6.00435 2.498C6.95074 2.498 7.86647 2.83356 8.5888 3.44504C9.31112 4.05651 9.79324 4.90429 9.94947 5.8377C10.1057 6.7711 9.92591 7.72967 9.44206 8.54302C8.95822 9.35638 8.20166 9.97183 7.30685 10.28L7.23185 11.34C8.40745 11.0353 9.43197 10.3131 10.1141 9.30834C10.7962 8.30355 11.0894 7.08484 10.9387 5.87977C10.7881 4.67469 10.204 3.56563 9.29552 2.75967C8.38704 1.95372 7.21628 1.50596 6.00185 1.5Z" fill="#666666"/>
<path d="M7.66037 5.305C7.73463 5.41101 7.79669 5.52507 7.84537 5.645C7.89644 5.76573 7.93497 5.89139 7.96037 6.02C7.9904 6.15121 8.0055 6.2854 8.00537 6.42C8.0055 6.55625 7.9904 6.6921 7.96037 6.825C7.93497 6.95361 7.89644 7.07927 7.84537 7.2C7.79669 7.31993 7.73463 7.43399 7.66037 7.54C7.60632 7.61505 7.54788 7.68684 7.48537 7.755L7.39037 9.065C7.49014 9.01935 7.58699 8.96759 7.68037 8.91C8.00464 8.69695 8.28336 8.42163 8.50037 8.1C8.60892 7.94319 8.70107 7.77564 8.77537 7.6C8.85252 7.41802 8.91115 7.22873 8.95037 7.035C8.98792 6.83224 9.00468 6.62617 9.00037 6.42C8.99853 6.21669 8.97676 6.01406 8.93537 5.815C8.85997 5.43385 8.71231 5.07065 8.50037 4.745C8.39256 4.58582 8.27038 4.43687 8.13537 4.3C7.9998 4.16355 7.8507 4.04126 7.69037 3.935C7.53256 3.82667 7.3652 3.73295 7.19037 3.655C7.00092 3.58428 6.80498 3.53237 6.60537 3.5C6.20769 3.42 5.79805 3.42 5.40037 3.5C5.20611 3.5395 5.01668 3.59985 4.83537 3.68C4.65973 3.7543 4.49218 3.84645 4.33537 3.955C4.17504 4.06126 4.02594 4.18355 3.89037 4.32C3.74763 4.44942 3.61708 4.59169 3.50037 4.745C3.28315 5.06951 3.13037 5.43278 3.05037 5.815C3.01398 6.01455 2.99724 6.21718 3.00037 6.42C3.00004 6.62317 3.02014 6.82585 3.06037 7.025C3.0996 7.21873 3.15822 7.40802 3.23537 7.59C3.30968 7.76564 3.40183 7.93319 3.51037 8.09C3.72807 8.40768 4.00269 8.6823 4.32037 8.9C4.41376 8.95759 4.51061 9.00935 4.61037 9.055L4.50037 7.755C4.43786 7.68684 4.37942 7.61505 4.32537 7.54C4.25111 7.43399 4.18905 7.31993 4.14037 7.2C4.0893 7.07927 4.05077 6.95361 4.02537 6.825C4.00201 6.69135 3.99362 6.55551 4.00037 6.42C3.99856 6.28558 4.01198 6.15139 4.04037 6.02C4.06577 5.89139 4.1043 5.76573 4.15537 5.645C4.20405 5.52507 4.26611 5.41101 4.34037 5.305C4.41345 5.19535 4.49719 5.09318 4.59037 5C4.68059 4.91051 4.7794 4.83012 4.88537 4.76C4.99138 4.68574 5.10544 4.62368 5.22537 4.575C5.34595 4.52232 5.47161 4.48211 5.60037 4.455C5.86638 4.40503 6.13936 4.40503 6.40537 4.455C6.53413 4.48211 6.65979 4.52232 6.78037 4.575C7.02016 4.66931 7.23676 4.81428 7.41537 5C7.50821 5.09216 7.59039 5.19447 7.66037 5.305Z" fill="#666666"/>
</svg>
