<svg width="12" height="13" viewBox="0 0 12 13" fill="none" xmlns="http://www.w3.org/2000/svg">
<path d="M1.3125 0.5H10.6875C11.412 0.5 12 1.088 12 1.8125V11.1875C12 11.5356 11.8617 11.8694 11.6156 12.1156C11.3694 12.3617 11.0356 12.5 10.6875 12.5H1.3125C0.964403 12.5 0.630564 12.3617 0.384422 12.1156C0.138281 11.8694 0 11.5356 0 11.1875L0 1.8125C0 1.088 0.588 0.5 1.3125 0.5ZM1.125 1.8125V11.1875C1.125 11.291 1.209 11.375 1.3125 11.375H10.6875C10.7372 11.375 10.7849 11.3552 10.8201 11.3201C10.8552 11.2849 10.875 11.2372 10.875 11.1875V1.8125C10.875 1.76277 10.8552 1.71508 10.8201 1.67992C10.7849 1.64475 10.7372 1.625 10.6875 1.625H1.3125C1.26277 1.625 1.21508 1.64475 1.17992 1.67992C1.14475 1.71508 1.125 1.76277 1.125 1.8125ZM8.8125 2.75C8.96168 2.75 9.10476 2.80926 9.21025 2.91475C9.31574 3.02024 9.375 3.16332 9.375 3.3125V8.9375C9.375 9.08668 9.31574 9.22976 9.21025 9.33525C9.10476 9.44074 8.96168 9.5 8.8125 9.5C8.66332 9.5 8.52024 9.44074 8.41475 9.33525C8.30926 9.22976 8.25 9.08668 8.25 8.9375V3.3125C8.25 3.16332 8.30926 3.02024 8.41475 2.91475C8.52024 2.80926 8.66332 2.75 8.8125 2.75ZM2.625 3.3125C2.625 3.16332 2.68426 3.02024 2.78975 2.91475C2.89524 2.80926 3.03832 2.75 3.1875 2.75C3.33668 2.75 3.47976 2.80926 3.58525 2.91475C3.69074 3.02024 3.75 3.16332 3.75 3.3125V7.4375C3.75 7.58668 3.69074 7.72976 3.58525 7.83525C3.47976 7.94074 3.33668 8 3.1875 8C3.03832 8 2.89524 7.94074 2.78975 7.83525C2.68426 7.72976 2.625 7.58668 2.625 7.4375V3.3125ZM6 2.75C6.14918 2.75 6.29226 2.80926 6.39775 2.91475C6.50324 3.02024 6.5625 3.16332 6.5625 3.3125V5.9375C6.5625 6.08668 6.50324 6.22976 6.39775 6.33525C6.29226 6.44074 6.14918 6.5 6 6.5C5.85082 6.5 5.70774 6.44074 5.60225 6.33525C5.49676 6.22976 5.4375 6.08668 5.4375 5.9375V3.3125C5.4375 3.16332 5.49676 3.02024 5.60225 2.91475C5.70774 2.80926 5.85082 2.75 6 2.75Z" fill="#666666"/>
</svg>
