<svg width="8" height="7" viewBox="0 0 8 7" fill="none" xmlns="http://www.w3.org/2000/svg">
<path d="M1.5 6.5V1.026C1.49996 0.909662 1.53857 0.796608 1.60976 0.704593C1.68095 0.612577 1.78068 0.546813 1.8933 0.517629C2.00592 0.488444 2.12504 0.497493 2.23196 0.543353C2.33887 0.589213 2.42753 0.669288 2.484 0.771L5.516 6.229C5.57247 6.33071 5.66113 6.41079 5.76804 6.45665C5.87496 6.50251 5.99408 6.51156 6.1067 6.48237C6.21932 6.45319 6.31905 6.38742 6.39024 6.29541C6.46143 6.20339 6.50004 6.09034 6.5 5.974V0.5M0.5 2.5H7.5M0.5 4.5H7.5" stroke="#666666" stroke-linecap="round" stroke-linejoin="round"/>
</svg>
