<svg width="87" height="13" viewBox="0 0 87 13" fill="none" xmlns="http://www.w3.org/2000/svg">
<path d="M10.09 12H12.64L7.945 1.5H5.545L0.865 12H3.355L4.285 9.75H9.16L10.09 12ZM5.065 7.905L6.73 3.885L8.395 7.905H5.065ZM15.7994 4.995V3.93H13.5644V12H15.9044V8.19C15.9044 6.645 16.7594 5.94 18.0494 5.94C18.2294 5.94 18.3794 5.955 18.5744 5.97V3.81C17.3294 3.81 16.3694 4.215 15.7994 4.995ZM23.7925 12.12C25.4875 12.12 26.8225 11.37 27.4075 10.08L25.5925 9.09C25.1575 9.87 24.5125 10.2 23.7775 10.2C22.5925 10.2 21.6625 9.375 21.6625 7.965C21.6625 6.555 22.5925 5.73 23.7775 5.73C24.5125 5.73 25.1575 6.075 25.5925 6.84L27.4075 5.865C26.8225 4.545 25.4875 3.81 23.7925 3.81C21.1675 3.81 19.2925 5.535 19.2925 7.965C19.2925 10.395 21.1675 12.12 23.7925 12.12ZM33.6012 3.81C32.5662 3.81 31.6662 4.14 31.0362 4.77V0.869999H28.6962V12H31.0362V8.01C31.0362 6.525 31.8462 5.835 32.9712 5.835C34.0062 5.835 34.6062 6.435 34.6062 7.74V12H36.9462V7.38C36.9462 4.92 35.5062 3.81 33.6012 3.81Z" fill="#2194EC"/>
<path d="M44.2573 12.18C46.0873 12.18 47.6023 11.52 48.5923 10.305L47.0323 8.865C46.3273 9.69 45.4423 10.11 44.3923 10.11C42.4273 10.11 41.0323 8.73 41.0323 6.75C41.0323 4.77 42.4273 3.39 44.3923 3.39C45.4423 3.39 46.3273 3.81 47.0323 4.62L48.5923 3.18C47.6023 1.98 46.0873 1.32 44.2723 1.32C41.0023 1.32 38.5723 3.585 38.5723 6.75C38.5723 9.915 41.0023 12.18 44.2573 12.18ZM53.2647 3.81C51.9747 3.81 50.6697 4.155 49.7847 4.785L50.6247 6.42C51.2097 5.955 52.0947 5.67 52.9497 5.67C54.2097 5.67 54.8097 6.255 54.8097 7.26H52.9497C50.4897 7.26 49.4847 8.25 49.4847 9.675C49.4847 11.07 50.6097 12.12 52.4997 12.12C53.6847 12.12 54.5247 11.73 54.9597 10.995V12H57.1497V7.395C57.1497 4.95 55.7247 3.81 53.2647 3.81ZM53.0847 10.545C52.2597 10.545 51.7647 10.155 51.7647 9.57C51.7647 9.03 52.1097 8.625 53.2047 8.625H54.8097V9.45C54.5397 10.185 53.8647 10.545 53.0847 10.545ZM63.2554 12.12C64.9504 12.12 66.2854 11.37 66.8704 10.08L65.0554 9.09C64.6204 9.87 63.9754 10.2 63.2404 10.2C62.0554 10.2 61.1254 9.375 61.1254 7.965C61.1254 6.555 62.0554 5.73 63.2404 5.73C63.9754 5.73 64.6204 6.075 65.0554 6.84L66.8704 5.865C66.2854 4.545 64.9504 3.81 63.2554 3.81C60.6304 3.81 58.7554 5.535 58.7554 7.965C58.7554 10.395 60.6304 12.12 63.2554 12.12ZM73.0641 3.81C72.0291 3.81 71.1291 4.14 70.4991 4.77V0.869999H68.1591V12H70.4991V8.01C70.4991 6.525 71.3091 5.835 72.4341 5.835C73.4691 5.835 74.0691 6.435 74.0691 7.74V12H76.4091V7.38C76.4091 4.92 74.9691 3.81 73.0641 3.81ZM86.5231 7.995C86.5231 5.4 84.6931 3.81 82.3231 3.81C79.8631 3.81 78.0181 5.55 78.0181 7.965C78.0181 10.365 79.8331 12.12 82.6231 12.12C84.0781 12.12 85.2031 11.67 85.9531 10.815L84.7081 9.465C84.1531 9.99 83.5381 10.245 82.6831 10.245C81.4531 10.245 80.5981 9.63 80.3731 8.625H86.4781C86.4931 8.43 86.5231 8.175 86.5231 7.995ZM82.3381 5.58C83.3881 5.58 84.1531 6.24 84.3181 7.26H80.3431C80.5081 6.225 81.2731 5.58 82.3381 5.58Z" fill="#414142"/>
</svg>
