<svg width="81" height="11" viewBox="0 0 81 11" fill="none" xmlns="http://www.w3.org/2000/svg">
<path d="M0.874 10.5L5.242 0.699999H7.482L11.864 10.5H9.484L5.9 1.848H6.796L3.198 10.5H0.874ZM3.058 8.4L3.66 6.678H8.7L9.316 8.4H3.058ZM12.7268 10.5V2.968H14.8128V5.096L14.5188 4.48C14.7428 3.948 15.1021 3.54667 15.5968 3.276C16.0914 2.996 16.6934 2.856 17.4028 2.856V4.872C17.3094 4.86267 17.2254 4.858 17.1508 4.858C17.0761 4.84867 16.9968 4.844 16.9128 4.844C16.3154 4.844 15.8301 5.01667 15.4568 5.362C15.0928 5.698 14.9108 6.22533 14.9108 6.944V10.5H12.7268ZM22.2867 10.612C21.4747 10.612 20.7513 10.4487 20.1167 10.122C19.482 9.786 18.9827 9.324 18.6187 8.736C18.264 8.148 18.0867 7.48067 18.0867 6.734C18.0867 5.978 18.264 5.31067 18.6187 4.732C18.9827 4.144 19.482 3.68667 20.1167 3.36C20.7513 3.024 21.4747 2.856 22.2867 2.856C23.08 2.856 23.7707 3.024 24.3587 3.36C24.9467 3.68667 25.3807 4.158 25.6607 4.774L23.9667 5.684C23.7707 5.32933 23.5233 5.068 23.2247 4.9C22.9353 4.732 22.618 4.648 22.2727 4.648C21.8993 4.648 21.5633 4.732 21.2647 4.9C20.966 5.068 20.728 5.306 20.5507 5.614C20.3827 5.922 20.2987 6.29533 20.2987 6.734C20.2987 7.17267 20.3827 7.546 20.5507 7.854C20.728 8.162 20.966 8.4 21.2647 8.568C21.5633 8.736 21.8993 8.82 22.2727 8.82C22.618 8.82 22.9353 8.74067 23.2247 8.582C23.5233 8.414 23.7707 8.148 23.9667 7.784L25.6607 8.708C25.3807 9.31467 24.9467 9.786 24.3587 10.122C23.7707 10.4487 23.08 10.612 22.2867 10.612ZM31.4551 2.856C32.0525 2.856 32.5845 2.97733 33.0511 3.22C33.5271 3.45333 33.9005 3.81733 34.1711 4.312C34.4418 4.79733 34.5771 5.42267 34.5771 6.188V10.5H32.3931V6.524C32.3931 5.91733 32.2578 5.46933 31.9871 5.18C31.7258 4.89067 31.3525 4.746 30.8671 4.746C30.5218 4.746 30.2091 4.82067 29.9291 4.97C29.6585 5.11 29.4438 5.32933 29.2851 5.628C29.1358 5.92667 29.0611 6.30933 29.0611 6.776V10.5H26.8771V0.111999H29.0611V5.054L28.5711 4.424C28.8418 3.92 29.2291 3.53267 29.7331 3.262C30.2371 2.99133 30.8111 2.856 31.4551 2.856Z" fill="#2194EC"/>
<path d="M41.4008 10.668C40.6448 10.668 39.9402 10.5467 39.2868 10.304C38.6428 10.052 38.0828 9.69733 37.6068 9.24C37.1308 8.78267 36.7575 8.246 36.4868 7.63C36.2255 7.014 36.0948 6.33733 36.0948 5.6C36.0948 4.86267 36.2255 4.186 36.4868 3.57C36.7575 2.954 37.1308 2.41733 37.6068 1.96C38.0922 1.50267 38.6568 1.15267 39.3008 0.909999C39.9448 0.658 40.6495 0.532 41.4148 0.532C42.2642 0.532 43.0295 0.681333 43.7108 0.98C44.4015 1.26933 44.9802 1.69867 45.4468 2.268L43.9908 3.612C43.6548 3.22933 43.2815 2.94467 42.8708 2.758C42.4602 2.562 42.0122 2.464 41.5268 2.464C41.0695 2.464 40.6495 2.53867 40.2668 2.688C39.8842 2.83733 39.5528 3.052 39.2728 3.332C38.9928 3.612 38.7735 3.94333 38.6148 4.326C38.4655 4.70867 38.3908 5.13333 38.3908 5.6C38.3908 6.06667 38.4655 6.49133 38.6148 6.874C38.7735 7.25667 38.9928 7.588 39.2728 7.868C39.5528 8.148 39.8842 8.36267 40.2668 8.512C40.6495 8.66133 41.0695 8.736 41.5268 8.736C42.0122 8.736 42.4602 8.64267 42.8708 8.456C43.2815 8.26 43.6548 7.966 43.9908 7.574L45.4468 8.918C44.9802 9.48733 44.4015 9.92133 43.7108 10.22C43.0295 10.5187 42.2595 10.668 41.4008 10.668ZM51.4034 10.5V9.03L51.2634 8.708V6.076C51.2634 5.60933 51.1187 5.24533 50.8294 4.984C50.5494 4.72267 50.1154 4.592 49.5274 4.592C49.1261 4.592 48.7294 4.65733 48.3374 4.788C47.9547 4.90933 47.6281 5.07733 47.3574 5.292L46.5734 3.766C46.9841 3.47667 47.4787 3.25267 48.0574 3.094C48.6361 2.93533 49.2241 2.856 49.8214 2.856C50.9694 2.856 51.8607 3.12667 52.4954 3.668C53.1301 4.20933 53.4474 5.054 53.4474 6.202V10.5H51.4034ZM49.1074 10.612C48.5194 10.612 48.0154 10.514 47.5954 10.318C47.1754 10.1127 46.8534 9.83733 46.6294 9.492C46.4054 9.14667 46.2934 8.75933 46.2934 8.33C46.2934 7.882 46.4007 7.49 46.6154 7.154C46.8394 6.818 47.1894 6.55667 47.6654 6.37C48.1414 6.174 48.7621 6.076 49.5274 6.076H51.5294V7.35H49.7654C49.2521 7.35 48.8974 7.434 48.7014 7.602C48.5147 7.77 48.4214 7.98 48.4214 8.232C48.4214 8.512 48.5287 8.736 48.7434 8.904C48.9674 9.06267 49.2707 9.142 49.6534 9.142C50.0174 9.142 50.3441 9.058 50.6334 8.89C50.9227 8.71267 51.1327 8.456 51.2634 8.12L51.5994 9.128C51.4407 9.61333 51.1514 9.982 50.7314 10.234C50.3114 10.486 49.7701 10.612 49.1074 10.612ZM59.1187 10.612C58.3067 10.612 57.5834 10.4487 56.9487 10.122C56.314 9.786 55.8147 9.324 55.4507 8.736C55.096 8.148 54.9187 7.48067 54.9187 6.734C54.9187 5.978 55.096 5.31067 55.4507 4.732C55.8147 4.144 56.314 3.68667 56.9487 3.36C57.5834 3.024 58.3067 2.856 59.1187 2.856C59.912 2.856 60.6027 3.024 61.1907 3.36C61.7787 3.68667 62.2127 4.158 62.4927 4.774L60.7987 5.684C60.6027 5.32933 60.3554 5.068 60.0567 4.9C59.7674 4.732 59.45 4.648 59.1047 4.648C58.7314 4.648 58.3954 4.732 58.0967 4.9C57.798 5.068 57.56 5.306 57.3827 5.614C57.2147 5.922 57.1307 6.29533 57.1307 6.734C57.1307 7.17267 57.2147 7.546 57.3827 7.854C57.56 8.162 57.798 8.4 58.0967 8.568C58.3954 8.736 58.7314 8.82 59.1047 8.82C59.45 8.82 59.7674 8.74067 60.0567 8.582C60.3554 8.414 60.6027 8.148 60.7987 7.784L62.4927 8.708C62.2127 9.31467 61.7787 9.786 61.1907 10.122C60.6027 10.4487 59.912 10.612 59.1187 10.612ZM68.2872 2.856C68.8845 2.856 69.4165 2.97733 69.8832 3.22C70.3592 3.45333 70.7325 3.81733 71.0032 4.312C71.2738 4.79733 71.4092 5.42267 71.4092 6.188V10.5H69.2252V6.524C69.2252 5.91733 69.0898 5.46933 68.8192 5.18C68.5578 4.89067 68.1845 4.746 67.6992 4.746C67.3538 4.746 67.0412 4.82067 66.7612 4.97C66.4905 5.11 66.2758 5.32933 66.1172 5.628C65.9678 5.92667 65.8932 6.30933 65.8932 6.776V10.5H63.7092V0.111999H65.8932V5.054L65.4032 4.424C65.6738 3.92 66.0612 3.53267 66.5652 3.262C67.0692 2.99133 67.6432 2.856 68.2872 2.856ZM77.1815 10.612C76.3229 10.612 75.5669 10.444 74.9135 10.108C74.2695 9.772 73.7702 9.31467 73.4155 8.736C73.0609 8.148 72.8835 7.48067 72.8835 6.734C72.8835 5.978 73.0562 5.31067 73.4015 4.732C73.7562 4.144 74.2369 3.68667 74.8435 3.36C75.4502 3.024 76.1362 2.856 76.9015 2.856C77.6389 2.856 78.3015 3.01467 78.8895 3.332C79.4869 3.64 79.9582 4.088 80.3035 4.676C80.6489 5.25467 80.8215 5.95 80.8215 6.762C80.8215 6.846 80.8169 6.944 80.8075 7.056C80.7982 7.15867 80.7889 7.25667 80.7795 7.35H74.6615V6.076H79.6315L78.7915 6.454C78.7915 6.062 78.7122 5.72133 78.5535 5.432C78.3949 5.14267 78.1755 4.91867 77.8955 4.76C77.6155 4.592 77.2889 4.508 76.9155 4.508C76.5422 4.508 76.2109 4.592 75.9215 4.76C75.6415 4.91867 75.4222 5.14733 75.2635 5.446C75.1049 5.73533 75.0255 6.08067 75.0255 6.482V6.818C75.0255 7.22867 75.1142 7.59267 75.2915 7.91C75.4782 8.218 75.7349 8.456 76.0615 8.624C76.3975 8.78267 76.7895 8.862 77.2375 8.862C77.6389 8.862 77.9889 8.80133 78.2875 8.68C78.5955 8.55867 78.8755 8.37667 79.1275 8.134L80.2895 9.394C79.9442 9.786 79.5102 10.0893 78.9875 10.304C78.4649 10.5093 77.8629 10.612 77.1815 10.612Z" fill="#B2B2B2"/>
</svg>
